<svg width="20" height="20" viewBox="0 0 24 24" fill="none" xmlns="http://www.w3.org/2000/svg">
<path d="M7 4V2C7 1.4 7.4 1 8 1H16C16.6 1 17 1.4 17 2V4H20C20.6 4 21 4.4 21 5S20.6 6 20 6H19V19C19 20.7 17.7 22 16 22H8C6.3 22 5 20.7 5 19V6H4C3.4 6 3 5.6 3 5S3.4 4 4 4H7ZM9 3V4H15V3H9ZM7 6V19C7 19.6 7.4 20 8 20H16C16.6 20 17 19.6 17 19V6H7Z" fill="#DC2626"/>
<path d="M9 8V18C9 18.6 9.4 19 10 19S11 18.6 11 18V8C11 7.4 10.6 7 10 7S9 7.4 9 8Z" fill="#DC2626"/>
<path d="M13 8V18C13 18.6 13.4 19 14 19S15 18.6 15 18V8C15 7.4 14.6 7 14 7S13 7.4 13 8Z" fill="#DC2626"/>
</svg>
