<svg width="20" height="20" viewBox="0 0 24 24" fill="none" xmlns="http://www.w3.org/2000/svg">
<path d="M3 17.2V20.5C3 20.8 3.2 21 3.5 21H6.8C6.9 21 7.1 20.9 7.2 20.8L16.8 11.2L12.8 7.2L3.2 16.8C3.1 16.9 3 17.1 3 17.2Z" fill="#3B82F6" stroke="#3B82F6" stroke-width="1.5"/>
<path d="M20.7 5.6C21.1 5.2 21.1 4.6 20.7 4.2L19.8 3.3C19.4 2.9 18.8 2.9 18.4 3.3L17.6 4.1L20.9 7.4L20.7 5.6Z" fill="#3B82F6" stroke="#3B82F6" stroke-width="1.5"/>
<path d="M18.5 5L19.5 6L13.5 12L12.5 11L18.5 5Z" fill="#FFFFFF"/>
</svg>
